<svg width="36" height="36" viewBox="0 0 36 36" fill="none" xmlns="http://www.w3.org/2000/svg">
<path d="M18.576 14.4002C18.42 14.405 18.27 14.4698 18.1596 14.5826L14.994 17.7386L13.044 15.7946C12.498 15.2258 11.616 16.1042 12.186 16.649L14.5656 19.0226C14.802 19.259 15.186 19.259 15.4236 19.0226L19.0176 15.4382C19.4136 15.0542 19.122 14.4002 18.5772 14.4002H18.576ZM0.6 19.2002H4.2C4.5324 19.2002 4.8 19.4678 4.8 19.8002C4.8 20.1326 4.5324 20.4002 4.2 20.4002H0.6C0.2676 20.4002 0 20.1326 0 19.8002C0 19.4678 0.2676 19.2002 0.6 19.2002ZM0.6 14.4002H4.2C4.5324 14.4002 4.8 14.6678 4.8 15.0002C4.8 15.3326 4.5324 15.6002 4.2 15.6002H0.6C0.2676 15.6002 0 15.3326 0 15.0002C0 14.6678 0.2676 14.4002 0.6 14.4002ZM0.6 9.6002H4.2C4.5324 9.6002 4.8 9.8678 4.8 10.2002C4.8 10.5326 4.5324 10.8002 4.2 10.8002H0.6C0.2676 10.8002 0 10.5326 0 10.2002C0 9.8678 0.2676 9.6002 0.6 9.6002ZM29.4 22.8002C27.75 22.8002 26.4 24.1502 26.4 25.8002C26.4 27.4502 27.75 28.8002 29.4 28.8002C31.05 28.8002 32.4 27.4502 32.4 25.8002C32.4 24.1502 31.05 22.8002 29.4 22.8002ZM29.4 24.0002C30.4008 24.0002 31.2 24.7994 31.2 25.8002C31.2 26.801 30.4008 27.6002 29.4 27.6002C28.3992 27.6002 27.6 26.801 27.6 25.8002C27.6 24.7994 28.3992 24.0002 29.4 24.0002ZM13.8 22.8002C12.15 22.8002 10.8 24.1502 10.8 25.8002C10.8 27.4502 12.15 28.8002 13.8 28.8002C15.45 28.8002 16.8 27.4502 16.8 25.8002C16.8 24.1502 15.45 22.8002 13.8 22.8002ZM13.8 24.0002C14.8008 24.0002 15.6 24.7994 15.6 25.8002C15.6 26.801 14.8008 27.6002 13.8 27.6002C12.7992 27.6002 12 26.801 12 25.8002C12 24.7994 12.7992 24.0002 13.8 24.0002ZM7.8 7.2002C6.8136 7.2002 6 8.0138 6 9.0002V22.2002C6 23.1866 6.8136 24.0002 7.8 24.0002H10.2C11.0112 24.0122 11.0112 22.7882 10.2 22.8002H7.8C7.4568 22.8002 7.2 22.5434 7.2 22.2002V9.0002C7.2 8.657 7.4568 8.4002 7.8 8.4002H23.4C23.7432 8.4002 24 8.657 24 9.0002V22.8002H17.4C16.608 22.8002 16.6224 24.0122 17.4 24.0002H25.8C26.592 24.0002 26.5848 22.8002 25.8 22.8002H25.2V12.0002H30.2724L34.8 19.0754V22.2002C34.8 22.5434 34.5432 22.8002 34.2 22.8002H33C32.2152 22.8002 32.2152 24.0002 33 24.0002H34.2C35.1864 24.0002 36 23.1866 36 22.2002V18.9002C36 18.7862 35.9676 18.6722 35.9064 18.5762L31.1064 11.0762C30.996 10.9046 30.8064 10.8002 30.6 10.8002H25.2V9.0002C25.2 8.0138 24.3864 7.2002 23.4 7.2002H7.8Z" fill="#80978E"/>
</svg>
