<svg width="30" height="30" viewBox="0 0 30 30" fill="none" xmlns="http://www.w3.org/2000/svg">
<g clip-path="url(#clip0_917_93)">
<path d="M14.0624 19.6874C13.939 19.6881 13.8167 19.6645 13.7025 19.6178C13.5883 19.5712 13.4844 19.5024 13.3968 19.4156L9.6468 15.6656C9.47027 15.489 9.37109 15.2496 9.37109 14.9999C9.37109 14.7503 9.47027 14.5108 9.6468 14.3343C9.82334 14.1578 10.0628 14.0586 10.3124 14.0586C10.5621 14.0586 10.8015 14.1578 10.9781 14.3343L14.0624 17.4281L19.9593 11.5218C20.1358 11.3453 20.3753 11.2461 20.6249 11.2461C20.8746 11.2461 21.114 11.3453 21.2906 11.5218C21.4671 11.6983 21.5663 11.9378 21.5663 12.1874C21.5663 12.4371 21.4671 12.6765 21.2906 12.8531L14.7281 19.4156C14.6405 19.5024 14.5366 19.5712 14.4223 19.6178C14.3081 19.6645 14.1858 19.6881 14.0624 19.6874Z" fill="#80978E"/>
<path d="M15 27.1875C12.5895 27.1875 10.2332 26.4727 8.22899 25.1335C6.22477 23.7944 4.66267 21.8909 3.74022 19.664C2.81778 17.437 2.57643 14.9865 3.04668 12.6223C3.51694 10.2582 4.67769 8.08659 6.38214 6.38214C8.08659 4.67769 10.2582 3.51694 12.6223 3.04668C14.9865 2.57643 17.437 2.81778 19.664 3.74022C21.8909 4.66267 23.7944 6.22477 25.1335 8.22899C26.4727 10.2332 27.1875 12.5895 27.1875 15C27.1875 18.2323 25.9035 21.3323 23.6179 23.6179C21.3323 25.9035 18.2323 27.1875 15 27.1875ZM15 4.68751C12.9604 4.68751 10.9666 5.29232 9.27069 6.42547C7.5748 7.55863 6.25303 9.16922 5.4725 11.0536C4.69197 12.9379 4.48775 15.0114 4.88566 17.0119C5.28357 19.0123 6.26574 20.8498 7.70797 22.292C9.1502 23.7343 10.9877 24.7164 12.9881 25.1144C14.9886 25.5123 17.0621 25.308 18.9464 24.5275C20.8308 23.747 22.4414 22.4252 23.5745 20.7293C24.7077 19.0334 25.3125 17.0396 25.3125 15C25.3125 12.265 24.226 9.64194 22.292 7.70797C20.3581 5.774 17.735 4.68751 15 4.68751Z" fill="#80978E"/>
</g>
<defs>
<clipPath id="clip0_917_93">
<rect width="30" height="30" fill="white"/>
</clipPath>
</defs>
</svg>
