<svg width="30" height="30" viewBox="0 0 30 30" fill="none" xmlns="http://www.w3.org/2000/svg">
<g clip-path="url(#clip0_917_71)">
<path d="M24.5268 19.7285C23.7937 19.7285 23.0973 20.0156 22.572 20.5349C22.0466 21.0602 21.7534 21.7444 21.7534 22.4774C21.7534 23.2105 22.0405 23.8947 22.572 24.42C23.1034 24.9393 23.7937 25.2264 24.5268 25.2264C26.0295 25.2264 27.2513 23.9924 27.2513 22.4774C27.2513 20.9625 26.0295 19.7285 24.5268 19.7285ZM24.5268 24.0046C23.6838 24.0046 22.9752 23.3082 22.9752 22.4774C22.9752 21.6467 23.6838 20.9503 24.5268 20.9503C25.3576 20.9503 26.0295 21.6344 26.0295 22.4774C26.0295 23.3205 25.3576 24.0046 24.5268 24.0046Z" fill="#80978E"/>
<path d="M25.235 10.5719C25.125 10.4681 24.9784 10.4131 24.8257 10.4131H21.6919C21.3559 10.4131 21.0811 10.688 21.0811 11.024V16.0331C21.0811 16.3691 21.3559 16.644 21.6919 16.644H26.6644C27.0004 16.644 27.2753 16.3691 27.2753 16.0331V12.6794C27.2753 12.5084 27.202 12.3434 27.0737 12.2274L25.235 10.5719ZM26.0536 15.4222H22.3028V11.6287H24.5875L26.0536 12.9482V15.4222Z" fill="#80978E"/>
<path d="M9.60882 19.7285C8.87577 19.7285 8.17937 20.0156 7.65402 20.5349C7.12867 21.0602 6.83545 21.7444 6.83545 22.4774C6.83545 23.2105 7.12256 23.8947 7.65402 24.42C8.18548 24.9393 8.87577 25.2264 9.60882 25.2264C11.1116 25.2264 12.3333 23.9924 12.3333 22.4774C12.3333 20.9625 11.1116 19.7285 9.60882 19.7285ZM9.60882 24.0046C8.76581 24.0046 8.0572 23.3082 8.0572 22.4774C8.0572 21.6467 8.76581 20.9503 9.60882 20.9503C10.4396 20.9503 11.1116 21.6344 11.1116 22.4774C11.1116 23.3205 10.4396 24.0046 9.60882 24.0046Z" fill="#80978E"/>
<path d="M5.53456 20.4799H4.30671V18.855C4.30671 18.519 4.03181 18.2441 3.69583 18.2441C3.35985 18.2441 3.08496 18.519 3.08496 18.855V21.0908C3.08496 21.4268 3.35985 21.7017 3.69583 21.7017H5.53456C5.87054 21.7017 6.14544 21.4268 6.14544 21.0908C6.14544 20.7548 5.87054 20.4799 5.53456 20.4799Z" fill="#80978E"/>
<path d="M8.63164 17.1509C8.63164 16.8149 8.35675 16.54 8.02077 16.54H0.610874C0.274893 16.54 0 16.8149 0 17.1509C0 17.4869 0.274893 17.7618 0.610874 17.7618H8.02077C8.35675 17.7618 8.63164 17.493 8.63164 17.1509Z" fill="#80978E"/>
<path d="M1.85096 14.9454L9.26085 14.9881C9.59684 14.9881 9.87173 14.7194 9.87784 14.3834C9.88395 14.0413 9.60905 13.7664 9.27307 13.7664L1.86318 13.7236C1.85707 13.7236 1.85707 13.7236 1.85707 13.7236C1.52109 13.7236 1.24619 13.9924 1.24619 14.3284C1.24008 14.6705 1.51498 14.9454 1.85096 14.9454Z" fill="#80978E"/>
<path d="M3.0972 12.1719H10.5071C10.8431 12.1719 11.118 11.897 11.118 11.5611C11.118 11.2251 10.8431 10.9502 10.5071 10.9502H3.0972C2.76122 10.9502 2.48633 11.2251 2.48633 11.5611C2.48633 11.897 2.76122 12.1719 3.0972 12.1719Z" fill="#80978E"/>
<path d="M29.774 11.3474L25.4002 7.72493C25.2902 7.6333 25.1558 7.58443 25.0092 7.58443H19.8657V5.38529C19.8657 5.04931 19.5908 4.77441 19.2548 4.77441H3.69583C3.35985 4.77441 3.08496 5.04931 3.08496 5.38529V9.85688C3.08496 10.1929 3.35985 10.4678 3.69583 10.4678C4.03181 10.4678 4.30671 10.1929 4.30671 9.85688V5.99616H18.65V20.48H13.6409C13.3049 20.48 13.03 20.7549 13.03 21.0908C13.03 21.4268 13.3049 21.7017 13.6409 21.7017H21.0996C21.4356 21.7017 21.7105 21.4268 21.7105 21.0908C21.7105 20.7549 21.4356 20.48 21.0996 20.48H19.8718V8.80618H24.7954L28.7783 12.1049L28.7355 20.4678H28.1002C27.7643 20.4678 27.4894 20.7426 27.4894 21.0786C27.4894 21.4146 27.7643 21.6895 28.1002 21.6895H29.3403C29.6763 21.6895 29.9512 21.4207 29.9512 21.0847L30 11.8239C29.9939 11.6406 29.9145 11.4635 29.774 11.3474Z" fill="#80978E"/>
</g>
<defs>
<clipPath id="clip0_917_71">
<rect width="30" height="30" fill="white"/>
</clipPath>
</defs>
</svg>
