<svg width="68" height="68" viewBox="0 0 68 68" fill="none" xmlns="http://www.w3.org/2000/svg">
<circle cx="34" cy="34" r="34" fill="#009A49"/>
<path d="M31.6574 33.6574C30.6045 33.6574 29.7032 33.2825 28.9534 32.5327C28.2036 31.783 27.8287 30.8816 27.8287 29.8287C27.8287 28.7758 28.2036 27.8745 28.9534 27.1247C29.7032 26.3749 30.6045 26 31.6574 26C32.7103 26 33.6117 26.3749 34.3615 27.1247C35.1113 27.8745 35.4861 28.7758 35.4861 29.8287C35.4861 30.8816 35.1113 31.783 34.3615 32.5327C33.6117 33.2825 32.7103 33.6574 31.6574 33.6574ZM24 41.3149V38.6348C24 38.1083 24.1356 37.6138 24.4068 37.1511C24.678 36.6885 25.0529 36.3375 25.5315 36.0982C26.3451 35.6835 27.2624 35.3325 28.2834 35.0453C29.3044 34.7582 30.4291 34.6146 31.6574 34.6146H31.9924C32.0882 34.6146 32.1839 34.6306 32.2796 34.6625C32.152 34.9496 32.0441 35.2489 31.9561 35.5603C31.868 35.8717 31.8004 36.1946 31.7531 36.529H31.6574C30.5248 36.529 29.5079 36.6725 28.6069 36.9597C27.7059 37.2469 26.9679 37.534 26.3929 37.8212C26.2494 37.9009 26.1336 38.0126 26.0455 38.1562C25.9574 38.2997 25.9137 38.4593 25.9144 38.6348V39.4005H31.9446C32.0403 39.7355 32.1679 40.0667 32.3275 40.3941C32.487 40.7214 32.6625 41.0283 32.8539 41.3149H24ZM37.4005 42.272L37.1133 40.8363C36.9219 40.7565 36.7423 40.6726 36.5745 40.5845C36.4066 40.4965 36.2353 40.3889 36.0605 40.262L34.6725 40.6927L33.7154 39.0655L34.8161 38.1083C34.7842 37.885 34.7683 37.6776 34.7683 37.4861C34.7683 37.2947 34.7842 37.0873 34.8161 36.864L33.7154 35.9068L34.6725 34.2796L36.0605 34.7103C36.2359 34.5827 36.4076 34.4752 36.5754 34.3878C36.7432 34.3003 36.9226 34.2164 37.1133 34.136L37.4005 32.7003H39.3149L39.602 34.136C39.7935 34.2158 39.9731 34.3035 40.1409 34.3992C40.3087 34.495 40.4801 34.6146 40.6549 34.7582L42.0428 34.2796L43 35.9547L41.8992 36.9118C41.9312 37.1033 41.9471 37.3027 41.9471 37.5101C41.9471 37.7175 41.9312 37.9169 41.8992 38.1083L43 39.0655L42.0428 40.6927L40.6549 40.262C40.4794 40.3896 40.3081 40.4974 40.1409 40.5855C39.9737 40.6736 39.7941 40.7571 39.602 40.8363L39.3149 42.272H37.4005ZM38.3577 39.4005C38.8841 39.4005 39.335 39.2129 39.7102 38.8377C40.0854 38.4625 40.2727 38.012 40.272 37.4861C40.272 36.9597 40.0844 36.5089 39.7092 36.1337C39.334 35.7584 38.8835 35.5711 38.3577 35.5718C37.8312 35.5718 37.3804 35.7594 37.0052 36.1346C36.63 36.5098 36.4427 36.9603 36.4433 37.4861C36.4433 38.0126 36.6309 38.4634 37.0061 38.8386C37.3814 39.2139 37.8319 39.4011 38.3577 39.4005ZM31.6574 31.7431C32.1839 31.7431 32.6347 31.5555 33.0099 31.1803C33.3851 30.805 33.5724 30.3545 33.5718 29.8287C33.5718 29.3023 33.3842 28.8514 33.009 28.4762C32.6338 28.101 32.1832 27.9137 31.6574 27.9144C31.131 27.9144 30.6802 28.102 30.3049 28.4772C29.9297 28.8524 29.7424 29.3029 29.7431 29.8287C29.7431 30.3552 29.9307 30.806 30.3059 31.1812C30.6811 31.5564 31.1316 31.7437 31.6574 31.7431Z" fill="white"/>
</svg>
