<svg width="19" height="17" viewBox="0 0 19 17" fill="none" xmlns="http://www.w3.org/2000/svg">
<path d="M7.65743 7.65743C6.60453 7.65743 5.70319 7.28254 4.9534 6.53274C4.20361 5.78295 3.82872 4.88161 3.82872 3.82872C3.82872 2.77582 4.20361 1.87448 4.9534 1.12469C5.70319 0.374895 6.60453 0 7.65743 0C8.71033 0 9.61167 0.374895 10.3615 1.12469C11.1113 1.87448 11.4861 2.77582 11.4861 3.82872C11.4861 4.88161 11.1113 5.78295 10.3615 6.53274C9.61167 7.28254 8.71033 7.65743 7.65743 7.65743ZM0 15.3149V12.6348C0 12.1083 0.1356 11.6138 0.406801 11.1511C0.678002 10.6885 1.0529 10.3375 1.53149 10.0982C2.34509 9.68346 3.26238 9.33249 4.28338 9.04534C5.30437 8.75819 6.42905 8.61461 7.65743 8.61461H7.99244C8.08816 8.61461 8.18388 8.63056 8.2796 8.66247C8.15197 8.94962 8.04413 9.2489 7.95607 9.5603C7.86801 9.8717 7.80037 10.1946 7.75315 10.529H7.65743C6.52477 10.529 5.50793 10.6725 4.6069 10.9597C3.70588 11.2469 2.96789 11.534 2.39295 11.8212C2.24937 11.9009 2.13355 12.0126 2.04549 12.1562C1.95743 12.2997 1.91372 12.4593 1.91436 12.6348V13.4005H7.94458C8.0403 13.7355 8.16793 14.0667 8.32746 14.3941C8.48699 14.7214 8.66247 15.0283 8.8539 15.3149H0ZM13.4005 16.272L13.1133 14.8363C12.9219 14.7565 12.7423 14.6726 12.5745 14.5845C12.4066 14.4965 12.2353 14.3889 12.0605 14.262L10.6725 14.6927L9.71536 13.0655L10.8161 12.1083C10.7842 11.885 10.7683 11.6776 10.7683 11.4861C10.7683 11.2947 10.7842 11.0873 10.8161 10.864L9.71536 9.9068L10.6725 8.2796L12.0605 8.71033C12.2359 8.5827 12.4076 8.47518 12.5754 8.38776C12.7432 8.30033 12.9226 8.21642 13.1133 8.13602L13.4005 6.70025H15.3149L15.602 8.13602C15.7935 8.21579 15.9731 8.30353 16.1409 8.39924C16.3087 8.49496 16.4801 8.61461 16.6549 8.75819L18.0428 8.2796L19 9.95466L17.8992 10.9118C17.9312 11.1033 17.9471 11.3027 17.9471 11.5101C17.9471 11.7175 17.9312 11.9169 17.8992 12.1083L19 13.0655L18.0428 14.6927L16.6549 14.262C16.4794 14.3896 16.3081 14.4974 16.1409 14.5855C15.9737 14.6736 15.7941 14.7571 15.602 14.8363L15.3149 16.272H13.4005ZM14.3577 13.4005C14.8841 13.4005 15.335 13.2129 15.7102 12.8377C16.0854 12.4625 16.2727 12.012 16.272 11.4861C16.272 10.9597 16.0844 10.5089 15.7092 10.1337C15.334 9.75844 14.8835 9.57115 14.3577 9.57179C13.8312 9.57179 13.3804 9.7594 13.0052 10.1346C12.63 10.5098 12.4427 10.9603 12.4433 11.4861C12.4433 12.0126 12.6309 12.4634 13.0061 12.8386C13.3814 13.2139 13.8319 13.4011 14.3577 13.4005ZM7.65743 5.74307C8.18388 5.74307 8.63471 5.55547 9.00992 5.18025C9.38514 4.80504 9.57243 4.35453 9.57179 3.82872C9.57179 3.30227 9.38418 2.85144 9.00897 2.47622C8.63375 2.10101 8.18324 1.91372 7.65743 1.91436C7.13098 1.91436 6.68015 2.10196 6.30494 2.47718C5.92972 2.85239 5.74243 3.3029 5.74307 3.82872C5.74307 4.35516 5.93068 4.80599 6.30589 5.18121C6.68111 5.55642 7.13162 5.74371 7.65743 5.74307Z" fill="white"/>
</svg>
