<svg width="68" height="68" viewBox="0 0 68 68" fill="none" xmlns="http://www.w3.org/2000/svg">
<circle cx="34" cy="34" r="34" fill="#007C74"/>
<mask id="mask0_789_4" style="mask-type:alpha" maskUnits="userSpaceOnUse" x="22" y="22" width="24" height="24">
<rect x="22" y="22" width="24" height="24" fill="#D9D9D9"/>
</mask>
<g mask="url(#mask0_789_4)">
<path d="M32.95 37.55L38.6 31.9L37.175 30.475L32.95 34.7L30.85 32.6L29.425 34.025L32.95 37.55ZM34 44C31.6833 43.4167 29.771 42.0873 28.263 40.012C26.7543 37.9373 26 35.6333 26 33.1V27L34 24L42 27V33.1C42 35.6333 41.246 37.9373 39.738 40.012C38.2293 42.0873 36.3167 43.4167 34 44ZM34 41.9C35.7333 41.35 37.1667 40.25 38.3 38.6C39.4333 36.95 40 35.1167 40 33.1V28.375L34 26.125L28 28.375V33.1C28 35.1167 28.5667 36.95 29.7 38.6C30.8333 40.25 32.2667 41.35 34 41.9Z" fill="white"/>
</g>
</svg>
