<svg width="20" height="20" viewBox="0 0 20 20" fill="none" xmlns="http://www.w3.org/2000/svg">
<g clip-path="url(#clip0_694_73)">
<path d="M10 0C4.477 0 0 4.47698 0 9.99997C0 15.5225 4.477 19.9999 10 19.9999C15.5226 19.9999 20 15.5225 20 9.99997C20 4.47698 15.5226 0 10 0ZM10 17.9999C5.58153 17.9999 2.00004 14.4179 2.00004 9.99997C2.00004 5.58152 5.58153 2.00003 10 2.00003C14.4179 2.00003 17.9999 5.58152 17.9999 9.99997C18 14.4179 14.418 17.9999 10 17.9999ZM13.0001 9.0039L10.4122 9.01441C10.1358 9.01569 10.0342 8.82907 10.1846 8.59698L12.9546 4.33795C13.2558 3.87504 13.1831 3.81651 12.7931 4.207L6.70703 10.2925C6.31641 10.6831 6.44761 10.9979 7.00007 10.9957L9.08743 10.9872C9.63951 10.985 9.84364 11.3584 9.54251 11.8214L6.77256 16.0806C6.62213 16.3121 6.65843 16.342 6.85447 16.1474L11.2043 11.8285C11.4 11.6338 11.716 11.317 11.9092 11.1202L13.298 9.71196C13.6857 9.31911 13.5519 9.00148 13.0001 9.0039Z" fill="white"/>
</g>
<defs>
<clipPath id="clip0_694_73">
<rect width="20" height="20" fill="white"/>
</clipPath>
</defs>
</svg>
