<svg width="68" height="68" viewBox="0 0 68 68" fill="none" xmlns="http://www.w3.org/2000/svg">
<circle cx="34" cy="34" r="34" fill="#009A49"/>
<g clip-path="url(#clip0_789_2)">
<path d="M34 24C28.477 24 24 28.477 24 34C24 39.5225 28.477 43.9999 34 43.9999C39.5226 43.9999 44 39.5225 44 34C44 28.477 39.5226 24 34 24ZM34 41.9999C29.5815 41.9999 26 38.4179 26 34C26 29.5815 29.5815 26 34 26C38.4179 26 41.9999 29.5815 41.9999 34C42 38.4179 38.418 41.9999 34 41.9999ZM37.0001 33.0039L34.4122 33.0144C34.1358 33.0157 34.0342 32.8291 34.1846 32.597L36.9546 28.3379C37.2558 27.875 37.1831 27.8165 36.7931 28.207L30.707 34.2925C30.3164 34.6831 30.4476 34.9979 31.0001 34.9957L33.0874 34.9872C33.6395 34.985 33.8436 35.3584 33.5425 35.8214L30.7726 40.0806C30.6221 40.3121 30.6584 40.342 30.8545 40.1474L35.2043 35.8285C35.4 35.6338 35.716 35.317 35.9092 35.1202L37.298 33.712C37.6857 33.3191 37.5519 33.0015 37.0001 33.0039Z" fill="white"/>
</g>
<defs>
<clipPath id="clip0_789_2">
<rect width="20" height="20" fill="white" transform="translate(24 24)"/>
</clipPath>
</defs>
</svg>
