<svg width="25" height="24" viewBox="0 0 25 24" fill="none" xmlns="http://www.w3.org/2000/svg">
<path d="M2.5 23.75C1.8125 23.75 1.22396 23.5052 0.734375 23.0156C0.244792 22.526 0 21.9375 0 21.25V3.75C0 3.0625 0.244792 2.47396 0.734375 1.98438C1.22396 1.49479 1.8125 1.25 2.5 1.25H8.75V3.75H2.5V21.25H20V14.5625L22.5 17.0625V21.25C22.5 21.9375 22.2552 22.526 21.7656 23.0156C21.276 23.5052 20.6875 23.75 20 23.75H2.5ZM3.75 18.75L7.5 13.75L10.3125 17.5L14.0625 12.5L18.75 18.75H3.75ZM23.1875 14.25L19.3125 10.375C18.875 10.6667 18.4062 10.8854 17.9062 11.0312C17.4062 11.1771 16.875 11.25 16.3125 11.25C14.7708 11.25 13.4583 10.7031 12.375 9.60938C11.2917 8.51562 10.75 7.1875 10.75 5.625C10.75 4.0625 11.2969 2.73438 12.3906 1.64062C13.4844 0.546875 14.8125 0 16.375 0C17.9375 0 19.2656 0.546875 20.3594 1.64062C21.4531 2.73438 22 4.0625 22 5.625C22 6.1875 21.9167 6.72917 21.75 7.25C21.5833 7.77083 21.375 8.25 21.125 8.6875L24.9375 12.5L23.1875 14.25ZM16.375 8.75C17.25 8.75 17.9896 8.44792 18.5938 7.84375C19.1979 7.23958 19.5 6.5 19.5 5.625C19.5 4.75 19.1979 4.01042 18.5938 3.40625C17.9896 2.80208 17.25 2.5 16.375 2.5C15.5 2.5 14.7604 2.80208 14.1562 3.40625C13.5521 4.01042 13.25 4.75 13.25 5.625C13.25 6.5 13.5521 7.23958 14.1562 7.84375C14.7604 8.44792 15.5 8.75 16.375 8.75Z" fill="white"/>
</svg>
