<svg width="68" height="68" viewBox="0 0 68 68" fill="none" xmlns="http://www.w3.org/2000/svg">
<circle cx="34" cy="34" r="34" fill="#008C65"/>
<g clip-path="url(#clip0_789_5)">
<path d="M35.296 22.0691C33.862 21.7106 32.53 22.7951 32.434 24.1991C32.326 25.7756 32.089 27.2231 31.792 28.0841C31.6045 28.6241 31.0735 29.6036 30.232 30.5426C29.3965 31.4771 28.309 32.3096 27.0355 32.6576C26.0275 32.9321 25 33.8051 25 35.0801V41.0816C25 42.3491 26.023 43.2776 27.172 43.3991C28.777 43.5701 29.518 44.0216 30.274 44.4836L30.346 44.5286C30.754 44.7761 31.213 45.0506 31.801 45.2546C32.3965 45.4586 33.0925 45.5801 34 45.5801H39.25C40.6555 45.5801 41.6485 44.8646 42.151 43.9841C42.3939 43.5686 42.5251 43.0974 42.532 42.6161C42.532 42.3881 42.4975 42.1481 42.4165 41.9201C42.718 41.5256 42.9865 41.0531 43.1485 40.5686C43.3135 40.0736 43.4065 39.4256 43.1545 38.8451C43.258 38.6501 43.3345 38.4416 43.393 38.2406C43.5085 37.8356 43.5625 37.3886 43.5625 36.9551C43.5625 36.5231 43.5085 36.0776 43.393 35.6711C43.3405 35.4843 43.2712 35.3025 43.186 35.1281C43.4487 34.7544 43.6176 34.3231 43.6787 33.8704C43.7398 33.4178 43.6912 32.9571 43.537 32.5271C43.228 31.6391 42.514 30.8771 41.737 30.6191C40.4665 30.1961 39.0325 30.2051 37.963 30.3026C37.741 30.3226 37.5194 30.3476 37.2985 30.3776C37.8189 28.1492 37.7869 25.8274 37.2055 23.6141C37.1043 23.2595 36.9103 22.9384 36.6434 22.6839C36.3765 22.4294 36.0465 22.2508 35.6875 22.1666L35.296 22.0691ZM39.25 44.0816H34C33.235 44.0816 32.7055 43.9781 32.29 43.8356C31.8685 43.6901 31.531 43.4936 31.126 43.2461L31.066 43.2101C30.2335 42.7016 29.269 42.1136 27.331 41.9081C26.8315 41.8541 26.5 41.4731 26.5 41.0831V35.0801C26.5 34.6991 26.839 34.2656 27.43 34.1051C29.0725 33.6551 30.3955 32.6111 31.351 31.5431C32.3035 30.4781 32.947 29.3306 33.208 28.5761C33.5725 27.5261 33.8185 25.9241 33.931 24.3011C33.9685 23.7581 34.471 23.4101 34.9315 23.5241L35.3245 23.6231C35.5645 23.6831 35.7115 23.8376 35.7565 24.0056C36.3691 26.3397 36.2935 28.801 35.539 31.0931C35.4963 31.2206 35.4886 31.3572 35.5168 31.4887C35.545 31.6201 35.608 31.7416 35.6993 31.8403C35.7905 31.9391 35.9066 32.0115 36.0354 32.05C36.1642 32.0885 36.301 32.0916 36.4315 32.0591L36.436 32.0576L36.457 32.0531L36.544 32.0321C37.0569 31.9232 37.5758 31.8446 38.098 31.7966C39.0925 31.7066 40.2835 31.7156 41.263 32.0426C41.5255 32.1296 41.938 32.4926 42.118 33.0176C42.2785 33.4796 42.2485 34.0226 41.719 34.5506L41.1895 35.0801L41.719 35.6111C41.7835 35.6756 41.8765 35.8226 41.95 36.0836C42.022 36.3341 42.0625 36.6386 42.0625 36.9551C42.0625 37.2731 42.022 37.5761 41.95 37.8281C41.875 38.0891 41.7835 38.2361 41.719 38.3006L41.1895 38.8301L41.719 39.3611C41.7895 39.4316 41.8825 39.6266 41.7265 40.0931C41.5639 40.5455 41.3055 40.9574 40.969 41.3006L40.4395 41.8301L40.969 42.3611C40.978 42.3686 41.0305 42.4361 41.0305 42.6161C41.0238 42.8361 40.9614 43.0509 40.849 43.2401C40.6015 43.6721 40.0945 44.0816 39.25 44.0816Z" fill="white"/>
</g>
<defs>
<clipPath id="clip0_789_5">
<rect width="24" height="24" fill="white" transform="translate(22 22)"/>
</clipPath>
</defs>
</svg>
