<svg width="40" height="40" viewBox="0 0 40 40" fill="none" xmlns="http://www.w3.org/2000/svg">
<g clip-path="url(#clip0_694_46)">
<path d="M33.7784 19.5554C31.7784 17.4443 29.1117 15.9999 26.334 15.4443C25.1117 15.111 23.8895 14.8888 22.6673 14.7777C25.7784 11.111 25.2228 5.55544 21.5562 2.44433C17.8895 -0.666784 12.334 -0.111229 9.22284 3.55544C6.11173 7.22211 6.66729 12.7777 10.334 15.8888C11.0006 16.4443 11.6673 16.8888 12.334 17.111V19.5554L10.5562 17.8888C9.00062 16.3332 6.44506 16.3332 4.7784 17.8888C3.22284 19.4443 3.11173 21.8888 4.66729 23.4443L9.7784 29.4443C10.0006 30.9999 10.5562 32.4443 11.334 33.7777C11.8895 34.7777 12.6673 35.7777 13.4451 36.5554V38.6665C13.4451 39.3332 13.8895 39.7777 14.5562 39.7777H29.6673C30.2228 39.7777 30.7784 39.2221 30.7784 38.6665V35.7777C32.8895 33.2221 34.0006 29.9999 34.0006 26.7777V20.3332C34.1117 19.8888 34.0006 19.6666 33.7784 19.5554ZM9.33395 9.11099C9.33395 5.44433 12.334 2.55544 16.0006 2.66655C19.6673 2.66655 22.5562 5.66655 22.4451 9.33322C22.4451 11.3332 21.5562 13.111 20.0006 14.3332V8.77766C19.9439 7.81474 19.521 6.91 18.8185 6.2489C18.1161 5.5878 17.1874 5.22043 16.2228 5.2221C14.2228 5.11099 12.4451 6.77766 12.4451 8.77766V14.5554C10.5562 13.4443 9.44506 11.3332 9.33395 9.11099ZM31.8895 26.6666C32.0006 29.5554 31.0006 32.3332 29.1117 34.5554C28.8895 34.7777 28.6673 34.9999 28.6673 35.3332V37.6665H15.7784V36.111C15.7784 35.7777 15.5562 35.4443 15.334 35.2221C14.5562 34.5554 13.8895 33.7777 13.334 32.7777C12.6673 31.6666 12.2228 30.3332 12.0006 28.9999C12.0006 28.7777 11.8895 28.5554 11.7784 28.3332L6.44506 21.9999C6.11173 21.6665 5.88951 21.2221 5.88951 20.6666C5.88951 20.2221 6.11173 19.6665 6.44506 19.3332C7.22284 18.6665 8.33395 18.6665 9.11173 19.3332L12.334 22.5554V25.8888L14.4451 24.7777V8.77766C14.5562 7.99988 15.2228 7.33322 16.1117 7.44433C16.8895 7.44433 17.6673 7.99988 17.6673 8.77766V21.5554L19.8895 21.9999V16.8888C20.0006 16.7777 20.1117 16.7777 20.2228 16.6665C21.0006 16.6665 21.7784 16.7777 22.5562 16.8888V22.5554L24.334 22.8888V17.111L25.6673 17.4443C26.2228 17.5554 26.7784 17.7777 27.334 17.9999V23.5554L29.1117 23.8888V18.7777C30.1117 19.2221 31.0006 19.8888 31.7784 20.6666L31.8895 26.6666Z" fill="white"/>
</g>
<defs>
<clipPath id="clip0_694_46">
<rect width="40" height="40" rx="20" fill="white"/>
</clipPath>
</defs>
</svg>
