<svg width="30" height="30" viewBox="0 0 30 30" fill="none" xmlns="http://www.w3.org/2000/svg">
<g clip-path="url(#clip0_917_83)">
<path d="M11.9687 0.361107C11.8823 0.413008 11.7845 0.510807 11.75 0.574108C11.7212 0.643108 10.322 4.60491 8.64617 9.37851C6.97037 14.1581 5.58827 18.0737 5.57687 18.0911C5.56547 18.1025 4.59797 17.7227 3.42317 17.2505C2.25437 16.7723 1.22927 16.3865 1.14287 16.3865C0.728271 16.3865 0.57287 16.5938 0.434571 17.3654C0.307971 18.068 0.256071 19.4441 0.342471 19.997C0.497871 20.9816 0.78587 21.7877 1.25237 22.5191C1.59197 23.0489 2.45597 23.8955 2.99717 24.2294C3.76877 24.713 9.92447 27.293 13.247 28.5365C16.253 29.6537 16.9727 29.8205 18.32 29.7053L18.9362 29.6477L19.4429 29.3138C20.4104 28.6805 21.0206 27.8972 21.8267 26.2619C22.4198 25.0526 22.892 23.8664 24.0782 20.5439C25.6331 16.2137 29.5601 4.85811 29.6867 4.33431C29.7386 4.13271 29.6291 3.86781 29.4449 3.74691C29.3183 3.66051 12.5153 0.263008 12.239 0.263008C12.176 0.263308 12.0551 0.309208 11.9687 0.361107ZM20.5889 3.11361C24.8327 3.96021 28.3109 4.65681 28.3223 4.66851C28.3685 4.70871 24.7811 15.0797 23.0477 19.928C21.7751 23.4866 21.2108 24.8975 20.612 26.0549C19.9382 27.3506 19.3913 28.0184 18.7406 28.3409C18.4469 28.4849 18.4124 28.4906 18.0668 28.4273C15.7577 28.0241 14.5658 26.0606 14.6405 22.7726C14.6579 21.9779 14.6579 21.9722 14.5079 21.8225C14.3984 21.713 13.2296 21.218 10.5404 20.1296C8.44427 19.2773 6.71687 18.5747 6.70547 18.5576C6.69407 18.5462 8.02427 14.711 9.66527 10.0295C12.3833 2.26161 12.6539 1.53021 12.7577 1.55331C12.821 1.57041 16.3448 2.27301 20.5889 3.11361ZM7.70177 20.2505L13.4774 22.577V23.3429C13.4774 24.938 13.8518 26.3603 14.5484 27.4487C14.6867 27.6677 14.7902 27.8462 14.7845 27.8462C14.7383 27.8462 12.5444 27.017 11.5484 26.6198C10.9496 26.3837 9.42917 25.7618 8.17967 25.2377C3.59027 23.3144 3.44627 23.2394 2.72657 22.4678C1.69577 21.368 1.30427 19.8938 1.53467 18.0167L1.56347 17.7692L1.74767 17.8442C1.85117 17.8838 4.52897 18.9662 7.70177 20.2505Z" fill="#80978E"/>
<path d="M13.8745 6.76409C13.5349 7.10969 13.7134 7.61069 14.2201 7.74869C14.4964 7.82339 14.6578 7.78889 14.842 7.62209C15.0205 7.45499 15.0607 7.21889 14.9398 6.97139C14.7499 6.56849 14.1796 6.45899 13.8745 6.76409Z" fill="#80978E"/>
<path d="M17.4161 7.82954C17.111 8.13464 17.1857 8.56094 17.5772 8.74514C17.681 8.79134 18.8843 9.13664 20.2547 9.50534C22.0052 9.98324 22.7825 10.1734 22.892 10.1446C23.3816 10.0237 23.4794 9.30974 23.036 9.07364C22.8749 8.98724 17.9054 7.63394 17.75 7.63394C17.6693 7.63394 17.5313 7.71434 17.4161 7.82954Z" fill="#80978E"/>
<path d="M12.1355 11.4342C11.9282 11.5953 11.8763 11.9121 12.0089 12.1599C12.0839 12.3039 12.1817 12.3729 12.3833 12.4422C12.7229 12.5574 12.9131 12.5112 13.1087 12.2811C13.3103 12.0393 13.2758 11.7054 13.0166 11.475C12.7922 11.2731 12.3659 11.2557 12.1355 11.4342Z" fill="#80978E"/>
<path d="M15.5791 12.3501C15.1876 12.5115 15.1126 13.0929 15.4525 13.3404C15.5215 13.3923 16.7308 13.8183 18.1417 14.2848C20.1226 14.9469 20.7445 15.1314 20.8711 15.0966C21.1243 15.0333 21.3088 14.7972 21.3088 14.5323C21.3088 14.1003 21.2569 14.0775 18.4585 13.1445C17.065 12.678 15.8731 12.2979 15.8098 12.3039C15.7459 12.3039 15.6424 12.327 15.5791 12.3501Z" fill="#80978E"/>
<path d="M10.4828 15.7126C10.3619 15.7528 10.241 15.8566 10.1717 15.9775C10.0679 16.156 10.0679 16.1905 10.1429 16.4035C10.2407 16.6915 10.5056 16.8643 10.8455 16.8643C11.0354 16.8643 11.1104 16.8298 11.243 16.6801C11.5541 16.3345 11.4041 15.8797 10.9262 15.7012C10.7303 15.6262 10.736 15.6262 10.4828 15.7126Z" fill="#80978E"/>
<path d="M13.6729 16.9629C13.4887 17.0379 13.3618 17.2509 13.3618 17.487C13.3618 17.9187 13.3561 17.913 16.2469 18.8748L18.8956 19.7559L19.1086 19.6407C19.5061 19.4277 19.5406 18.8403 19.1719 18.6444C18.9418 18.5232 14.0359 16.9053 13.909 16.911C13.8457 16.911 13.7362 16.9341 13.6729 16.9629Z" fill="#80978E"/>
</g>
<defs>
<clipPath id="clip0_917_83">
<rect width="30" height="30" fill="white"/>
</clipPath>
</defs>
</svg>
