<svg width="21" height="17" viewBox="0 0 21 17" fill="none" xmlns="http://www.w3.org/2000/svg">
<path d="M13.905 2.00129C13.145 2.00116 12.4153 2.29941 11.8729 2.83185C11.3305 3.3643 11.0189 4.08838 11.005 4.84829L10.977 6.42329C10.9754 6.50785 10.9559 6.59111 10.9198 6.66761C10.8837 6.74411 10.8319 6.81211 10.7676 6.86717C10.7034 6.92222 10.6283 6.96307 10.5472 6.98705C10.4661 7.01102 10.3808 7.01758 10.297 7.00629L8.736 6.79429C6.682 6.51429 4.714 5.56829 2.826 3.99529C2.228 7.30529 3.396 9.59829 6.209 11.3673L7.956 12.4653C8.03901 12.5175 8.10797 12.5892 8.15685 12.6741C8.20573 12.7591 8.23304 12.8548 8.23639 12.9528C8.23975 13.0507 8.21905 13.1481 8.17609 13.2362C8.13314 13.3243 8.06924 13.4006 7.99 13.4583L6.398 14.6213C7.345 14.6803 8.244 14.6383 8.99 14.4903C13.708 13.5483 16.845 9.99829 16.845 4.14229C16.845 3.66429 15.833 2.00129 13.905 2.00129ZM9.005 4.81129C9.02245 3.84734 9.32389 2.90996 9.87156 2.11651C10.4192 1.32306 11.1888 0.708806 12.0839 0.350653C12.979 -0.00749937 13.9599 -0.0936341 14.9037 0.103034C15.8476 0.299701 16.7124 0.770431 17.39 1.45629C18.101 1.45129 18.706 1.63129 20.059 0.811287C19.724 2.45129 19.559 3.16329 18.845 4.14229C18.845 11.7843 14.148 15.5003 9.382 16.4513C6.114 17.1033 1.362 16.0323 0 14.6103C0.694 14.5563 3.514 14.2533 5.144 13.0603C3.765 12.1513 -1.724 8.92129 1.883 0.237286C3.576 2.21429 5.293 3.56029 7.033 4.27429C8.191 4.74929 8.475 4.73929 9.006 4.81229L9.005 4.81129Z" fill="#ECBB00"/>
</svg>
